<?xml version="1.0" encoding="utf-8"?>
<!-- Generator: Adobe Illustrator 16.0.0, SVG Export Plug-In . SVG Version: 6.00 Build 0)  -->
<svg version="1.2" baseProfile="tiny" xmlns="http://www.w3.org/2000/svg" xmlns:xlink="http://www.w3.org/1999/xlink" x="0px"
	 y="0px" width="477.528px" height="246.067px" viewBox="0 0 477.528 246.067" xml:space="preserve">
<g id="Layer_2">
	<rect fill="#FFFFFF" stroke="#000000" stroke-width="1.0059" stroke-miterlimit="10" width="477.528" height="246.067"/>
</g>
<g id="Layer_1">
	<g>
		<g>
			<path d="M125.16,197.154l5.625,15l5.65-15h3.25v17.85h-2.25v-14.85h-0.05l-5.575,14.85h-2.025l-5.575-14.85h-0.05v14.85h-2.25
				v-17.85H125.16z"/>
			<path d="M147.734,205.892c0.267-0.825,0.667-1.542,1.2-2.15c0.533-0.608,1.191-1.087,1.975-1.438
				c0.783-0.35,1.683-0.524,2.7-0.524c1.033,0,1.938,0.175,2.713,0.524c0.775,0.351,1.429,0.829,1.962,1.438
				c0.533,0.608,0.933,1.325,1.2,2.15s0.4,1.712,0.4,2.662s-0.134,1.834-0.4,2.65s-0.667,1.529-1.2,2.138
				c-0.534,0.608-1.188,1.083-1.962,1.425c-0.775,0.341-1.68,0.513-2.713,0.513c-1.017,0-1.917-0.172-2.7-0.513
				c-0.784-0.342-1.442-0.816-1.975-1.425c-0.534-0.608-0.934-1.321-1.2-2.138s-0.4-1.7-0.4-2.65S147.468,206.717,147.734,205.892z
				 M149.897,210.642c0.208,0.608,0.496,1.116,0.863,1.524c0.366,0.409,0.795,0.722,1.287,0.938
				c0.492,0.217,1.013,0.325,1.562,0.325c0.55,0,1.071-0.108,1.562-0.325c0.492-0.216,0.921-0.528,1.288-0.938
				c0.367-0.408,0.654-0.916,0.863-1.524c0.208-0.608,0.312-1.304,0.312-2.088c0-0.783-0.104-1.479-0.312-2.087
				c-0.209-0.608-0.496-1.121-0.863-1.538c-0.367-0.416-0.796-0.733-1.288-0.95c-0.492-0.216-1.012-0.324-1.562-0.324
				c-0.55,0-1.071,0.108-1.562,0.324c-0.492,0.217-0.921,0.534-1.287,0.95c-0.367,0.417-0.654,0.93-0.863,1.538
				s-0.312,1.304-0.312,2.087C149.584,209.338,149.688,210.033,149.897,210.642z"/>
			<path d="M175.834,215.004v-2.05h-0.05c-0.45,0.8-1.025,1.388-1.725,1.763c-0.7,0.375-1.525,0.562-2.475,0.562
				c-0.85,0-1.559-0.113-2.125-0.338s-1.025-0.546-1.375-0.963c-0.35-0.416-0.596-0.912-0.737-1.487s-0.212-1.212-0.212-1.912v-8.5
				h2.125v8.75c0,0.8,0.233,1.434,0.7,1.899c0.467,0.467,1.108,0.7,1.925,0.7c0.65,0,1.212-0.1,1.688-0.3s0.871-0.483,1.188-0.85
				c0.316-0.367,0.554-0.796,0.712-1.288c0.158-0.491,0.237-1.028,0.237-1.612v-7.3h2.125v12.925H175.834z"/>
			<path d="M187.784,202.079v2.05h0.05c0.883-1.566,2.283-2.35,4.2-2.35c0.85,0,1.558,0.116,2.125,0.35
				c0.566,0.233,1.025,0.559,1.375,0.975c0.35,0.417,0.596,0.913,0.737,1.488c0.142,0.574,0.212,1.212,0.212,1.912v8.5h-2.125v-8.75
				c0-0.8-0.233-1.434-0.7-1.9c-0.467-0.466-1.109-0.699-1.925-0.699c-0.65,0-1.212,0.1-1.688,0.3
				c-0.475,0.2-0.871,0.483-1.188,0.85c-0.316,0.367-0.554,0.796-0.712,1.288c-0.159,0.491-0.237,1.029-0.237,1.612v7.3h-2.125
				v-12.925H187.784z"/>
			<path d="M209.959,202.079v1.875h-2.575v8.024c0,0.25,0.021,0.45,0.062,0.601c0.042,0.149,0.121,0.267,0.238,0.35
				c0.116,0.084,0.279,0.138,0.487,0.163c0.208,0.024,0.479,0.037,0.812,0.037h0.975v1.875h-1.625c-0.55,0-1.021-0.037-1.413-0.112
				s-0.708-0.213-0.95-0.413c-0.242-0.199-0.421-0.482-0.538-0.85c-0.117-0.366-0.175-0.85-0.175-1.45v-8.225h-2.2v-1.875h2.2
				v-3.875h2.125v3.875H209.959z"/>
			<path d="M228.508,214.954c-0.367,0.216-0.875,0.325-1.525,0.325c-0.55,0-0.987-0.154-1.312-0.463
				c-0.325-0.309-0.487-0.812-0.487-1.513c-0.583,0.7-1.263,1.204-2.038,1.513s-1.612,0.463-2.513,0.463
				c-0.583,0-1.137-0.067-1.662-0.2c-0.525-0.134-0.979-0.342-1.363-0.625s-0.688-0.654-0.913-1.112
				c-0.225-0.459-0.337-1.013-0.337-1.663c0-0.733,0.125-1.333,0.375-1.8s0.579-0.846,0.988-1.138
				c0.408-0.291,0.875-0.513,1.4-0.662c0.525-0.15,1.062-0.275,1.612-0.375c0.583-0.116,1.138-0.204,1.663-0.263
				s0.987-0.142,1.388-0.25c0.4-0.108,0.716-0.267,0.95-0.475c0.233-0.209,0.35-0.513,0.35-0.913c0-0.466-0.087-0.841-0.263-1.125
				c-0.175-0.283-0.4-0.5-0.675-0.649c-0.275-0.15-0.583-0.25-0.925-0.301c-0.342-0.05-0.68-0.074-1.013-0.074
				c-0.9,0-1.65,0.171-2.25,0.512c-0.6,0.342-0.925,0.988-0.975,1.938h-2.125c0.033-0.8,0.2-1.475,0.5-2.024
				c0.3-0.55,0.7-0.996,1.2-1.338c0.5-0.341,1.071-0.587,1.712-0.737s1.329-0.225,2.062-0.225c0.583,0,1.163,0.041,1.737,0.125
				c0.575,0.083,1.096,0.253,1.562,0.511s0.842,0.62,1.125,1.085c0.283,0.466,0.425,1.073,0.425,1.821v6.636
				c0,0.499,0.029,0.865,0.087,1.098c0.058,0.232,0.254,0.35,0.587,0.35c0.183,0,0.4-0.033,0.65-0.101V214.954z M225.059,208.329
				c-0.267,0.199-0.617,0.344-1.05,0.436c-0.434,0.091-0.887,0.166-1.362,0.224c-0.475,0.059-0.954,0.125-1.438,0.199
				s-0.917,0.195-1.3,0.36c-0.384,0.166-0.696,0.402-0.938,0.709c-0.242,0.308-0.363,0.726-0.363,1.257
				c0,0.348,0.071,0.643,0.212,0.883s0.325,0.436,0.55,0.585s0.487,0.257,0.788,0.323c0.3,0.066,0.616,0.1,0.95,0.1
				c0.7,0,1.3-0.096,1.8-0.286s0.908-0.432,1.225-0.722s0.55-0.605,0.7-0.945s0.225-0.659,0.225-0.958V208.329z"/>
			<path d="M235.358,199.754v-2.6h2.125v2.6H235.358z M237.483,202.079v12.925h-2.125v-12.925H237.483z"/>
			<path d="M247.533,202.079v2.05h0.05c0.883-1.566,2.283-2.35,4.2-2.35c0.85,0,1.559,0.116,2.125,0.35s1.025,0.559,1.375,0.975
				c0.35,0.417,0.596,0.913,0.737,1.488c0.142,0.574,0.212,1.212,0.212,1.912v8.5h-2.125v-8.75c0-0.8-0.232-1.434-0.699-1.9
				c-0.467-0.466-1.109-0.699-1.926-0.699c-0.649,0-1.212,0.1-1.687,0.3c-0.475,0.2-0.871,0.483-1.188,0.85
				c-0.316,0.367-0.554,0.796-0.712,1.288c-0.159,0.491-0.237,1.029-0.237,1.612v7.3h-2.125v-12.925H247.533z"/>
			<path d="M274.333,199.154v-2h14.275v2h-5.95v15.85h-2.375v-15.85H274.333z"/>
			<path d="M291.907,205.892c0.267-0.825,0.667-1.542,1.2-2.15s1.191-1.087,1.975-1.438c0.783-0.35,1.684-0.524,2.7-0.524
				c1.033,0,1.938,0.175,2.713,0.524c0.774,0.351,1.429,0.829,1.962,1.438s0.934,1.325,1.2,2.15s0.4,1.712,0.4,2.662
				s-0.134,1.834-0.4,2.65s-0.667,1.529-1.2,2.138s-1.188,1.083-1.962,1.425c-0.775,0.341-1.68,0.513-2.713,0.513
				c-1.017,0-1.917-0.172-2.7-0.513c-0.783-0.342-1.441-0.816-1.975-1.425s-0.934-1.321-1.2-2.138s-0.399-1.7-0.399-2.65
				S291.641,206.717,291.907,205.892z M294.07,210.642c0.208,0.608,0.495,1.116,0.862,1.524c0.366,0.409,0.796,0.722,1.287,0.938
				c0.491,0.217,1.013,0.325,1.562,0.325s1.071-0.108,1.562-0.325c0.491-0.216,0.921-0.528,1.288-0.938
				c0.366-0.408,0.653-0.916,0.862-1.524c0.208-0.608,0.312-1.304,0.312-2.088c0-0.783-0.104-1.479-0.312-2.087
				c-0.209-0.608-0.496-1.121-0.862-1.538c-0.367-0.416-0.797-0.733-1.288-0.95c-0.491-0.216-1.013-0.324-1.562-0.324
				s-1.071,0.108-1.562,0.324c-0.491,0.217-0.921,0.534-1.287,0.95c-0.367,0.417-0.654,0.93-0.862,1.538
				c-0.209,0.608-0.312,1.304-0.312,2.087C293.758,209.338,293.861,210.033,294.07,210.642z"/>
			<path d="M320.007,215.004v-2.05h-0.05c-0.45,0.8-1.025,1.388-1.725,1.763c-0.7,0.375-1.525,0.562-2.476,0.562
				c-0.85,0-1.559-0.113-2.125-0.338s-1.024-0.546-1.375-0.963c-0.35-0.416-0.596-0.912-0.737-1.487s-0.213-1.212-0.213-1.912v-8.5
				h2.125v8.75c0,0.8,0.233,1.434,0.7,1.899c0.467,0.467,1.108,0.7,1.925,0.7c0.65,0,1.213-0.1,1.688-0.3
				c0.476-0.2,0.871-0.483,1.188-0.85c0.316-0.367,0.555-0.796,0.713-1.288c0.158-0.491,0.237-1.028,0.237-1.612v-7.3h2.125v12.925
				H320.007z"/>
			<path d="M331.884,202.079v2.725h0.05c0.517-1.05,1.149-1.825,1.899-2.325s1.7-0.732,2.851-0.699v2.25
				c-0.851,0-1.575,0.116-2.175,0.35c-0.601,0.233-1.084,0.575-1.45,1.025c-0.367,0.449-0.634,0.996-0.8,1.637
				c-0.167,0.643-0.25,1.38-0.25,2.213v5.75h-2.125v-12.925H331.884z"/>
			<path d="M344.658,212.116c0.2,0.325,0.463,0.584,0.788,0.775s0.691,0.329,1.1,0.412c0.408,0.084,0.829,0.125,1.263,0.125
				c0.333,0,0.684-0.024,1.05-0.075c0.366-0.05,0.704-0.141,1.013-0.274s0.562-0.329,0.763-0.588c0.2-0.258,0.3-0.587,0.3-0.987
				c0-0.55-0.209-0.967-0.625-1.25c-0.417-0.283-0.938-0.513-1.562-0.688s-1.305-0.333-2.037-0.475
				c-0.734-0.142-1.413-0.342-2.038-0.601c-0.625-0.258-1.146-0.62-1.562-1.087s-0.625-1.117-0.625-1.95
				c0-0.65,0.146-1.208,0.438-1.675s0.667-0.846,1.125-1.138s0.976-0.509,1.55-0.65c0.575-0.142,1.146-0.212,1.713-0.212
				c0.733,0,1.408,0.062,2.025,0.188c0.616,0.125,1.162,0.342,1.637,0.649c0.476,0.309,0.854,0.726,1.138,1.25
				c0.283,0.525,0.45,1.18,0.5,1.963h-2.125c-0.033-0.417-0.142-0.763-0.325-1.038c-0.184-0.274-0.416-0.495-0.699-0.662
				c-0.284-0.166-0.597-0.287-0.938-0.362c-0.342-0.075-0.688-0.112-1.038-0.112c-0.316,0-0.638,0.024-0.962,0.074
				c-0.325,0.051-0.621,0.138-0.888,0.263s-0.483,0.292-0.65,0.5c-0.167,0.209-0.25,0.479-0.25,0.812
				c0,0.367,0.129,0.671,0.388,0.913c0.258,0.241,0.588,0.441,0.987,0.6c0.4,0.158,0.851,0.292,1.351,0.4s1,0.221,1.5,0.337
				c0.533,0.117,1.054,0.259,1.562,0.425c0.508,0.167,0.958,0.388,1.35,0.663c0.392,0.274,0.708,0.621,0.95,1.037
				c0.241,0.417,0.362,0.934,0.362,1.55c0,0.784-0.162,1.434-0.487,1.95s-0.75,0.934-1.275,1.25
				c-0.524,0.317-1.116,0.538-1.774,0.663c-0.659,0.125-1.312,0.188-1.963,0.188c-0.717,0-1.4-0.075-2.05-0.226
				c-0.65-0.149-1.226-0.396-1.726-0.737s-0.899-0.791-1.199-1.35c-0.301-0.559-0.467-1.238-0.5-2.038h2.125
				C344.35,211.396,344.459,211.791,344.658,212.116z"/>
		</g>
		<g>
			<g>
				<g>
					<path d="M430.692,114.185l-8.242-6.299l-45.336-34.651c0,0-17.045,7.89-18.41,7.965c-2.24,0.136-17.174-12.644-32.059-25.94
						c-0.824-0.728-1.641-1.459-2.457-2.196c-15.174-13.601-29.564-27.024-29.564-27.024s-41.595,26.851-50.398,28.989
						c-2.246,0.545-17.203-14.55-17.203-14.55s-83.537,51.832-93.986,56.854c-2.486,1.2-19.487-9.857-21.674-11.458
						c-1.235,0.544-29.925,8.761-94.43,43.477l89.994-27.394l23.452,19.611l34.496-31.174l14.521,14.746l44.337-49.347l21.49,25.494
						l46.696-41.908l24.385,25.08l6.111,6.28l32.074,32.982l20.027-20.198l34.111,34.12l5.289,5.284l2.963,0.929l44.779,10.642
						L430.692,114.185z"/>
				</g>
			</g>
			<g>
				<path d="M23.038,134.835h17.233c4.422,0,8.488,0.517,12.2,1.55c3.711,1.033,6.905,2.545,9.583,4.533
					c2.678,1.99,4.761,4.429,6.25,7.316c1.488,2.89,2.233,6.189,2.233,9.9c0,3.334-0.628,6.473-1.883,9.417
					c-1.256,2.944-3.095,5.506-5.517,7.683c-2.422,2.179-5.395,3.9-8.917,5.168c-3.522,1.266-7.562,1.899-12.117,1.899H23.038
					V134.835z M34.671,177.436h6.2c2.289,0,4.444-0.422,6.467-1.268c2.022-0.844,3.789-2.083,5.3-3.717
					c1.511-1.633,2.706-3.639,3.583-6.016c0.877-2.378,1.317-5.111,1.317-8.201c0-2.666-0.412-5.133-1.233-7.399
					c-0.822-2.267-1.973-4.233-3.45-5.899c-1.478-1.667-3.239-2.967-5.283-3.9c-2.045-0.934-4.278-1.4-6.7-1.4h-6.2V177.436z"/>
				<path d="M99.604,133.802l22.233,48.5h-11.9l-5.934-12.967H85.571l-6.233,12.967h-7.934l23.167-48.5H99.604z M87.737,164.902
					h14.3l-7.033-15.334L87.737,164.902z"/>
				<path d="M124.704,134.835h17.833c3.067,0,5.755,0.323,8.067,0.967c2.311,0.646,4.233,1.545,5.767,2.7
					c1.533,1.156,2.683,2.521,3.45,4.1c0.767,1.578,1.15,3.301,1.15,5.167c0,1.333-0.262,2.605-0.783,3.816
					c-0.522,1.212-1.262,2.323-2.217,3.333c-0.956,1.012-2.1,1.912-3.434,2.701c-1.333,0.789-2.812,1.438-4.433,1.949l16.9,22.733
					H154.37l-15.967-21.5h-2.066v21.5h-11.633V134.835z M136.337,156.701h2.533c1.422,0,2.739-0.199,3.95-0.6
					c1.211-0.4,2.261-0.972,3.15-1.717c0.889-0.744,1.588-1.654,2.1-2.732c0.511-1.078,0.767-2.295,0.767-3.65
					c0-1.244-0.195-2.389-0.583-3.434c-0.389-1.045-0.928-1.949-1.617-2.717c-0.689-0.767-1.506-1.361-2.45-1.783
					c-0.945-0.422-1.983-0.633-3.117-0.633h-4.733V156.701z"/>
				<path d="M169.237,134.835h11.7v17.833l21.034-17.833h9.033l-23.733,20.067l30.1,27.399h-14.1l-22.333-20.333v20.333h-11.7
					V134.835z"/>
				<path d="M298.736,183.035c-2.846,0-5.334-0.334-7.467-1s-3.949-1.588-5.449-2.767c-1.5-1.178-2.689-2.577-3.566-4.2
					c-0.879-1.621-1.484-3.4-1.818-5.334h8.068c0.287,1.179,0.699,2.284,1.232,3.317s1.211,1.929,2.033,2.683
					c0.822,0.756,1.801,1.351,2.934,1.784c1.133,0.433,2.443,0.649,3.934,0.649c1,0,1.982-0.105,2.949-0.316s1.834-0.55,2.6-1.017
					c0.768-0.466,1.385-1.083,1.852-1.851c0.467-0.766,0.699-1.705,0.699-2.816c0-1.422-0.361-2.678-1.084-3.766
					c-0.723-1.09-1.678-2.084-2.865-2.984c-1.189-0.899-2.545-1.738-4.068-2.516c-1.521-0.778-3.072-1.562-4.648-2.351
					c-1.578-0.788-3.129-1.61-4.65-2.467c-1.523-0.854-2.879-1.816-4.066-2.884c-1.189-1.066-2.145-2.266-2.867-3.6
					c-0.723-1.333-1.084-2.867-1.084-4.6c0-1.889,0.412-3.639,1.234-5.25s2.016-3.006,3.582-4.184c1.568-1.178,3.484-2.1,5.75-2.767
					c2.268-0.667,4.846-1,7.734-1c2.4,0,4.566,0.333,6.5,1s3.639,1.572,5.117,2.717c1.477,1.145,2.721,2.495,3.732,4.05
					c1.012,1.556,1.783,3.233,2.316,5.033h-7.332c-0.424-1.133-0.912-2.211-1.467-3.232c-0.557-1.022-1.246-1.922-2.066-2.701
					c-0.824-0.777-1.812-1.395-2.967-1.85c-1.156-0.455-2.545-0.684-4.168-0.684c-1.512,0-2.789,0.2-3.832,0.6
					c-1.045,0.4-1.891,0.906-2.533,1.518c-0.646,0.611-1.107,1.295-1.385,2.05c-0.277,0.756-0.416,1.5-0.416,2.233
					c0,1.267,0.371,2.416,1.117,3.449c0.744,1.034,1.732,1.99,2.967,2.867c1.232,0.879,2.627,1.723,4.182,2.533
					c1.557,0.812,3.15,1.629,4.785,2.45c1.633,0.823,3.232,1.679,4.799,2.567s2.967,1.871,4.201,2.949
					c1.232,1.078,2.221,2.272,2.965,3.584c0.746,1.311,1.117,2.789,1.117,4.434c0,1.933-0.4,3.728-1.199,5.383
					c-0.801,1.656-1.984,3.1-3.551,4.333s-3.512,2.2-5.832,2.899C304.43,182.686,301.758,183.035,298.736,183.035z"/>
				<path d="M365.203,134.835v4.034H348.77v43.433h-11.633v-43.433h-16.434v-4.034H365.203z"/>
				<path d="M392.936,133.802l22.234,48.5h-11.9l-5.934-12.967h-18.434l-6.232,12.967h-7.934l23.166-48.5H392.936z M381.068,164.902
					h14.301l-7.033-15.334L381.068,164.902z"/>
				<path d="M418.035,134.835h17.834c3.066,0,5.756,0.323,8.066,0.967c2.311,0.646,4.234,1.545,5.768,2.7
					c1.533,1.156,2.684,2.521,3.449,4.1c0.768,1.578,1.15,3.301,1.15,5.167c0,1.333-0.262,2.605-0.783,3.816
					c-0.523,1.212-1.262,2.323-2.217,3.333c-0.955,1.012-2.1,1.912-3.434,2.701s-2.811,1.438-4.434,1.949l16.9,22.733h-12.633
					l-15.967-21.5h-2.066v21.5h-11.635V134.835z M429.67,156.701h2.533c1.422,0,2.738-0.199,3.949-0.6s2.262-0.972,3.15-1.717
					c0.889-0.744,1.588-1.654,2.1-2.732s0.768-2.295,0.768-3.65c0-1.244-0.195-2.389-0.584-3.434s-0.928-1.949-1.617-2.717
					c-0.689-0.767-1.506-1.361-2.449-1.783c-0.945-0.422-1.984-0.633-3.117-0.633h-4.732V156.701z"/>
			</g>
			<polygon points="246.104,123.037 255.482,142.041 276.457,145.091 261.278,159.884 264.862,180.773 246.104,170.909 
				227.343,180.773 230.926,159.884 215.749,145.091 236.724,142.041 			"/>
		</g>
	</g>
</g>
</svg>
